<svg xmlns="http://www.w3.org/2000/svg" viewBox="0 0 327.11 79.65"><defs><style>.cls-1,.cls-11,.cls-6{fill:#0c53ec;}.cls-1,.cls-2,.cls-3{fill-rule:evenodd;}.cls-2{fill:#0b52ec;}.cls-3{fill:#0d53eb;}.cls-4{fill:#879d9e;}.cls-5{fill:#1d50ec;}.cls-6{font-size:25.76px;font-family:UniSansHeavyCAPS, Uni Sans;}.cls-7{letter-spacing:-0.01em;}.cls-8{letter-spacing:-0.01em;}.cls-9{letter-spacing:-0.02em;}.cls-10{letter-spacing:0em;}.cls-11{font-size:15.08px;stroke:#0c53ec;stroke-miterlimit:10;stroke-width:0.5px;font-family:UniSansThinCAPS, Uni Sans;}.cls-12{letter-spacing:-0.03em;}</style></defs><title>Asset 1</title><g id="Layer_2" data-name="Layer 2"><g id="Layer_1-2" data-name="Layer 1"><path class="cls-1" d="M41.38,66.26a.06.06,0,0,0,.07,0,10,10,0,0,0,1.75-.14c.8-.1.8-.11.94.68s.15.88,1,.74c.31,0,.4,0,.45.32s.16.68.19,1,.26.55.65.54.87,0,1.31,0c.94,0,1,0,1.23.89.09.3.23.33.49.25l1.6-.48c.74-.23.74-.23,1.08.42a11.41,11.41,0,0,0,.61,1.58q.83,2.12,1.7,4.23c.16.38.12.55-.3.72A41.32,41.32,0,0,1,43.71,79.5a5.44,5.44,0,0,0-1.44.15h-1.9q0-2.71-.09-5.41,0-2.55-.09-5.09c0-.36,0-.72,0-1.08.28,0,.57,0,.85,0s.43-.09.4-.42S41.4,66.71,41.38,66.26Z"/><path class="cls-2" d="M0,37.2a3.06,3.06,0,0,0,.16-1.08A40.22,40.22,0,0,1,2,27.25c.09-.27.18-.35.47-.25q4,1.4,8,2.76c.36.12.38.27.27.59A26.48,26.48,0,0,0,10,33c-.07.29,0,.42.29.49,1,.2.95.22.77,1.17-.21,1.16-.32,2.33-.43,3.5a1.24,1.24,0,0,1-1.12.06c-.17-.1-.3-.06-.31.15s-.17.37-.08.63,0,.62.05.93a.16.16,0,0,1-.15.23,11.64,11.64,0,0,1-1.29.15c-2.59,0-5.18,0-7.77,0Z"/><path class="cls-1" d="M30.94,72.32c.13-.48.28-1,.4-1.44.07-.28.19-.36.47-.28s.85.21,1.27.33c.25.07.37,0,.42-.27.37-1.86.77-3.71,1.13-5.58.06-.3.15-.34.4-.28s.57.09.85.16.31,0,.34-.27c.16-1.28.35-2.57.51-3.85,0-.34.15-.43.49-.38.59.09,1.19.13,1.79.2a2.43,2.43,0,0,0-.08.44c0,1.6,0,3.19,0,4.79q0,1,0,2a.63.63,0,0,0-.15.46q0,5.65,0,11.3H37.29a4.05,4.05,0,0,0-1.35-.16l-1.48-.19a44.07,44.07,0,0,1-4.7-.92c-.3-.07-.43-.19-.32-.53s.28-.95.41-1.42Z"/><path class="cls-1" d="M42.36,0a.53.53,0,0,0,.47.17,14.82,14.82,0,0,1,2.52.19c.3,0,.37.13.32.43-.44,2.86-.86,5.72-1.29,8.58-.19,1.21-.2,1.21-1.41,1.3s-1.34.09-1.58,1.38a23.8,23.8,0,0,0-.48,2.5c0,.32-.27.42-.51.5-.64.21-1.29.4-1.94.61-.23.07-.25,0-.26-.21-.06-1.08-.13-2.16-.19-3.25q0-.9,0-1.79c0-.12,0-.25-.14-.28q-.11-1.45-.23-2.9c0-.42,0-.84-.06-1.26-.14-1.72-.17-3.46-.37-5.17,0-.26-.15-.6.17-.81Z"/><path class="cls-1" d="M.15,43.45c0-.14,0-.27,0-.41a1.74,1.74,0,0,0,0-.36c-.06-.39.07-.54.49-.51a11.71,11.71,0,0,0,1.4,0c.28,0,.57.1.83-.09L5.22,42c1.95,0,3.89-.07,5.83-.16.43,0,.61.07.62.54s.14,1.22.2,1.84c0,.26.14.35.41.32L18,43.85l.22,0c.32-.07.46,0,.38.38-.14.63-.21,1.28-.31,1.92s-.08.55.48.42c.26-.06.53-.12.79-.2s.37,0,.47.24c.27.76.29.76-.45,1.08-4.34,1.88-8.62,3.88-12.87,6q-1.54.76-3.07,1.55c-.56.29-.48.36-.73-.27A40.67,40.67,0,0,1,.64,47C.42,45.84.27,44.65.15,43.45Z"/><path class="cls-1" d="M29.05,1.45c1.16-.24,2.31-.57,3.48-.78.91-.16,1.82-.3,2.73-.41.15,0,.3,0,.41.1V.54c0,.12,0,.24,0,.36.19,1.76.36,3.53.58,5.29,0,.36-.06.44-.38.47a26.91,26.91,0,0,0-3,.49c-.19,0-.42.05-.31.35,0,.09,0,.18,0,.27s0,.48,0,.73-.11.16-.22.19c-.84.23-1.68.46-2.51.72-.27.08-.37,0-.45-.23-.28-.86-.58-1.71-.85-2.57-.09-.28-.22-.36-.49-.24s-.48.18-.72.27c-.89.34-.78.19-.46,1Q28,10.49,29.2,13.3c.12.3.09.43-.21.53s-.52.24-.79.33-.37.3-.27.61c.28.89.26.89-.53,1.33-.59.33-1.18.66-1.76,1-.2.12-.32.16-.47-.07L21,10.46c0-.13,0-.21-.15-.23h0c0-.37,0-.74-.53-.81-.6-.93-1.2-1.86-1.81-2.79-.14-.21-.17-.36.09-.49a4.64,4.64,0,0,0,.53-.35l.11-.07h0l1.74-1A44.85,44.85,0,0,1,27.34,2Z"/><path class="cls-1" d="M47.67,11.92c.13-.47.22-.84.34-1.2s0-.35-.24-.41c-.63-.14-1.26-.31-1.89-.44-.27-.05-.34-.14-.28-.42q.81-4.19,1.59-8.39c.05-.3.16-.38.48-.31A40.34,40.34,0,0,1,61.75,6.53c.27.17.33.3.13.59q-1.59,2.33-3.15,4.69c-.18.27-.31.27-.56.1-.78-.54-1.62-1-2.44-1.47-.26-.15-.4-.14-.55.16-.46.93-1,1.85-1.44,2.77a6.6,6.6,0,0,1-.45.74c-.08.12-.2.11-.35,0a27.79,27.79,0,0,0-5-2C47.73,12.08,47.64,12,47.67,11.92Z"/><path class="cls-1" d="M59.92,65.87,63.81,71c.35.46.35.45-.12.81a41.42,41.42,0,0,1-7,4.18c-.36.17-.52.14-.69-.25q-3.37-7.55-6.77-15.08l-.12-.24c-.26-.54-.27-.56.28-.81.31-.14.29-.29.16-.55-.36-.71-.34-.71.35-1.09.4-.22.78-.45,1.16-.7.22-.15.34-.14.51.09.53.75.55.76,1.27.17.33-.28.49-.22.73.1,1.15,1.51,2.31,3,3.47,4.5C57.95,63.38,58.92,64.64,59.92,65.87Z"/><path class="cls-1" d="M6.13,18.76l.27.15,15.07,9.4a.49.49,0,0,1,.21.77,15.77,15.77,0,0,0-1.19,2.58c-.1.29-.24.32-.5.22-1.6-.62-3.2-1.24-4.81-1.84q-6-2.23-12-4.44c-.4-.14-.41-.33-.28-.66a44.3,44.3,0,0,1,3-5.89C6,18.8,6,18.75,6.13,18.76Z"/><path class="cls-3" d="M29.76,71.86A22.53,22.53,0,0,0,29,74.4h0a1,1,0,0,0-.18.54h0c-.28.84-.56,1.68-.82,2.52-.08.25-.18.36-.44.27a53.39,53.39,0,0,1-5.87-2.44L19.2,73.93h0a.09.09,0,0,0-.11-.07c-1.22-.8-2.45-1.59-3.6-2.49-.27-.21-.3-.32-.08-.59q3.38-4.26,6.73-8.55c.18-.24.3-.25.53-.07a19.89,19.89,0,0,0,2.46,1.68c.24.13.3.26.14.52C24.15,66.25,23,68.12,21.92,70c-.15.24-.17.38.11.51a9.2,9.2,0,0,1,.83.46c.26.16.43.14.56-.16s.36-.63.5-1,.45-.4.79-.23c.94.49,1.91.89,2.88,1.3a1.61,1.61,0,0,0,.26.06,18.15,18.15,0,0,0,1.92.72C29.77,71.75,29.77,71.81,29.76,71.86Z"/><path class="cls-1" d="M4.7,56.45l2.89-1.39c.25-.13.39-.06.47.2a2.06,2.06,0,0,0,.13.29,2.46,2.46,0,0,0,.37.72c.24.23.48-.1.74-.12a4.44,4.44,0,0,1,2.32.47A10.65,10.65,0,0,1,14,58a.58.58,0,0,0,.62.12c.45-.15.91-.28,1.49-.45-.34.49-.6.88-.88,1.27a.61.61,0,0,0-.09.62,11.49,11.49,0,0,1,.62,3.77,2.27,2.27,0,0,1-.37,1.33c-.14.19-.06.3.07.42.43.41.84.83,1.28,1.22.19.17.21.28,0,.47-.89,1-1.77,2.05-2.63,3.1-.24.29-.37.06-.5-.05A38.93,38.93,0,0,1,9.1,65.19a38.52,38.52,0,0,1-4.78-7.32v-.09c0-.32-.29-.55-.27-.81S4.6,56.78,4.7,56.45Z"/><path class="cls-1" d="M7.93,16a37.89,37.89,0,0,1,6.45-6.8c.76-.62,1.55-1.2,2.32-1.8.21-.17.33-.15.5.08q2.46,3.54,4.95,7.07c.15.21.12.33-.07.48a23.83,23.83,0,0,0-2.39,2.33c-.18.21-.31.23-.5,0s-.51-.51-.72-.81-.47-.31-.8-.07a32.49,32.49,0,0,0-3.76,3.18c-.26.26-.42.24-.66,0s-.62-.43-.89-.69-.47-.21-.72,0-.55.47-.81.72a.31.31,0,0,1-.47,0c-.8-.57-1.6-1.11-2.41-1.67a.85.85,0,0,0-.75-.52h0a1.54,1.54,0,0,1,.27-.77C7.64,16.54,8,16.37,7.93,16Z"/><path class="cls-3" d="M65.16,15a25.83,25.83,0,0,0-3-2.75c-.36-.29-.73-.58-1.11-.85s-.27-.29-.09-.53c.73-1,1.44-1.93,2.13-2.92.21-.29.34-.26.6-.07a39.71,39.71,0,0,1,7.89,7.84q1,1.33,1.91,2.74c.14.22.15.33-.1.48q-3.12,1.91-6.21,3.86c-.27.17-.43.13-.55-.14l0-.08c-.39-.63-.39-.64-1-.24-.24.16-.39.18-.57-.1-.45-.67-.92-1.33-1.42-2-.2-.26,0-.35.11-.49.43-.56.43-.56,0-1.09s-.45-.51,0-1,1-.89,1.51-1.36C66,15.69,65.95,15.68,65.16,15Z"/><path class="cls-3" d="M63.73,60.83c.54-.51.54-.51,1.15,0a10.64,10.64,0,0,1,.86.73c.25.25.44.23.67,0s.51-.47.75-.72.28-.15.45,0q1.89,1.44,3.79,2.86c.21.16.21.27.06.46a40.83,40.83,0,0,1-5.85,6.13c-.24.21-.33.1-.48-.09-1.51-1.82-3-3.64-4.55-5.44-.28-.34-.35-.55.06-.79a.94.94,0,0,0,.18-.19,2.68,2.68,0,0,0,.69-.57,16.59,16.59,0,0,0,2.12-2.24h0Z"/><path class="cls-4" d="M65,32.36a4.48,4.48,0,0,1-1.46.26,2.23,2.23,0,0,1-2.44-2.39,2.38,2.38,0,0,1,2.57-2.45,2.94,2.94,0,0,1,1.18.22l-.15.5a2.49,2.49,0,0,0-1-.2,1.77,1.77,0,0,0-1.91,1.91,1.74,1.74,0,0,0,1.83,1.92,2,2,0,0,0,.82-.13V30.58h-1v-.49H65Z"/><path class="cls-4" d="M66,27.83h.61v4.23h2v.51H66Z"/><path class="cls-4" d="M73.06,30.15a2.22,2.22,0,0,1-2.2,2.5,2.17,2.17,0,0,1-2.13-2.41,2.25,2.25,0,0,1,2.2-2.49A2.16,2.16,0,0,1,73.06,30.15Zm-3.68.08c0,1,.55,1.92,1.51,1.92s1.52-.9,1.52-2-.49-1.93-1.51-1.93S69.38,29.19,69.38,30.23Z"/><path class="cls-4" d="M73.85,27.89A5.94,5.94,0,0,1,75,27.8a2,2,0,0,1,1.3.34,1,1,0,0,1,.39.84,1.13,1.13,0,0,1-.8,1h0a1.22,1.22,0,0,1,1,1.19,1.28,1.28,0,0,1-.4,1,2.39,2.39,0,0,1-1.64.44,7.19,7.19,0,0,1-1-.05Zm.61,1.94H75c.65,0,1-.34,1-.79s-.42-.77-1-.77a2.52,2.52,0,0,0-.54,0Zm0,2.27a3.37,3.37,0,0,0,.51,0c.63,0,1.22-.23,1.22-.92s-.56-.91-1.22-.91h-.51Z"/><path class="cls-4" d="M78.43,31.08l-.49,1.49h-.63l1.61-4.74h.74l1.62,4.74h-.65l-.51-1.49ZM80,30.6l-.46-1.37c-.1-.31-.17-.59-.25-.87h0c-.07.28-.15.57-.24.86l-.46,1.37Z"/><path class="cls-4" d="M82,27.83h.61v4.23h2v.51H82Z"/><path class="cls-4" d="M61.33,38.93a2.17,2.17,0,0,0,1.1.31c.63,0,1-.33,1-.81s-.25-.7-.89-.94-1.25-.68-1.25-1.34a1.37,1.37,0,0,1,1.53-1.29,2.16,2.16,0,0,1,1,.23l-.17.5a1.88,1.88,0,0,0-.9-.23c-.65,0-.89.39-.89.71s.29.66.94.91c.8.31,1.21.7,1.21,1.39s-.54,1.37-1.66,1.37a2.46,2.46,0,0,1-1.21-.3Z"/><path class="cls-4" d="M65.49,34.93v2h2.29v-2h.62v4.74h-.62V37.45H65.49v2.22h-.61V34.93Z"/><path class="cls-4" d="M70.23,38.18l-.49,1.49h-.63l1.61-4.74h.74l1.62,4.74h-.65l-.51-1.49Zm1.56-.48-.47-1.37c-.1-.31-.18-.59-.25-.87h0c-.07.28-.15.57-.24.86l-.46,1.37Z"/><path class="cls-4" d="M73.77,35a7,7,0,0,1,1.18-.09,2,2,0,0,1,1.33.39,1.27,1.27,0,0,1,.41,1,1.4,1.4,0,0,1-.37,1,2,2,0,0,1-1.45.52,2,2,0,0,1-.49,0v1.9h-.61Zm.61,2.29a2.06,2.06,0,0,0,.51,0c.74,0,1.19-.36,1.19-1s-.44-.93-1.12-.93a2.55,2.55,0,0,0-.58.05Z"/><path class="cls-4" d="M80,37.45H78.13v1.71h2.06v.51H77.52V34.93h2.56v.51h-2v1.5H80Z"/><path class="cls-4" d="M81,35a6.37,6.37,0,0,1,1.18-.1,1.94,1.94,0,0,1,1.37.39,1.18,1.18,0,0,1,.37.9A1.25,1.25,0,0,1,83,37.4v0a1.18,1.18,0,0,1,.7,1,7.29,7.29,0,0,0,.37,1.3h-.63a6.15,6.15,0,0,1-.32-1.13c-.14-.66-.39-.9-1-.92h-.58v2.05H81Zm.61,2.16h.63c.65,0,1.07-.36,1.07-.9s-.44-.88-1.09-.89a2.51,2.51,0,0,0-.61.06Z"/><path class="cls-4" d="M84.68,38.93a2.18,2.18,0,0,0,1.1.31c.63,0,1-.33,1-.81s-.26-.7-.9-.94-1.25-.68-1.25-1.34a1.37,1.37,0,0,1,1.53-1.29,2.17,2.17,0,0,1,1,.23l-.17.5a1.88,1.88,0,0,0-.9-.23c-.65,0-.89.39-.89.71s.29.66.94.91,1.21.7,1.21,1.39-.54,1.37-1.66,1.37a2.46,2.46,0,0,1-1.21-.3Z"/><path class="cls-4" d="M64.72,46.62a3,3,0,0,1-1.25.22,2.22,2.22,0,0,1-2.34-2.4A2.36,2.36,0,0,1,63.6,42a2.58,2.58,0,0,1,1.13.21l-.15.5a2.22,2.22,0,0,0-1-.2,1.76,1.76,0,0,0-1.85,2,1.72,1.72,0,0,0,1.82,1.91,2.44,2.44,0,0,0,1-.2Z"/><path class="cls-4" d="M69.4,44.35a2.22,2.22,0,0,1-2.2,2.5,2.18,2.18,0,0,1-2.13-2.41A2.25,2.25,0,0,1,67.26,42,2.16,2.16,0,0,1,69.4,44.35Zm-3.68.08c0,1,.55,1.92,1.51,1.92s1.52-.89,1.52-2-.49-1.93-1.51-1.93S65.72,43.39,65.72,44.43Z"/><path class="cls-4" d="M74.19,44.69c0-.66-.08-1.46-.07-2h0c-.16.56-.36,1.15-.6,1.8l-.84,2.3H72.2l-.77-2.26c-.23-.67-.41-1.28-.55-1.85h0c0,.59,0,1.39-.09,2.1l-.12,2h-.58L70.4,42h.78L72,44.33c.2.58.36,1.11.48,1.6h0c.12-.48.29-1,.5-1.6L73.83,42h.78l.3,4.74h-.6Z"/><path class="cls-4" d="M79.85,44.69c0-.66-.08-1.46-.07-2h0c-.16.56-.36,1.15-.6,1.8l-.84,2.3h-.46l-.77-2.26c-.23-.67-.41-1.28-.55-1.85h0c0,.59,0,1.39-.09,2.1l-.13,2h-.58L76.05,42h.78l.81,2.29c.2.58.36,1.11.48,1.6h0c.12-.48.29-1,.5-1.6L79.49,42h.78l.3,4.74H80Z"/><path class="cls-4" d="M82.12,42v2.81c0,1.06.47,1.51,1.11,1.51s1.15-.47,1.15-1.51V42H85V44.8c0,1.46-.77,2.06-1.79,2.06s-1.7-.56-1.7-2V42Z"/><path class="cls-4" d="M86.06,46.78V42h.67l1.52,2.4A13.23,13.23,0,0,1,89.1,46h0C89.06,45.33,89,44.76,89,44V42h.58v4.74H89l-1.5-2.41a14.72,14.72,0,0,1-.89-1.58h0c0,.6,0,1.17,0,2v2Z"/><path class="cls-4" d="M91.3,42v4.74h-.61V42Z"/><path class="cls-4" d="M93.27,42.55H91.83V42h3.51v.52H93.89v4.22h-.62Z"/><path class="cls-4" d="M97.12,46.78v-2L95.62,42h.7L97,43.34c.18.36.32.65.47,1h0c.13-.31.29-.62.48-1L98.64,42h.7l-1.59,2.72v2Z"/><path class="cls-5" d="M61.43,49.57a11.36,11.36,0,0,1,1.73-.12,3.64,3.64,0,0,1,2.32.61,2.5,2.5,0,0,1,1,2.13,2.87,2.87,0,0,1-.94,2.29,4.06,4.06,0,0,1-2.61.73,10.67,10.67,0,0,1-1.45-.09Zm1.29,4.62a2.54,2.54,0,0,0,.45,0,1.75,1.75,0,0,0,1.91-2,1.62,1.62,0,0,0-1.78-1.8,2.59,2.59,0,0,0-.58.05Z"/><path class="cls-5" d="M68.56,49.49v2.18h2.11V49.49h1.28v5.66H70.67V52.79H68.56v2.37H67.27V49.49Z"/><path class="cls-5" d="M74.38,53.7,74,55.15H72.65l1.73-5.66h1.68l1.76,5.66H76.44L76,53.7Zm1.44-1-.35-1.2c-.1-.34-.2-.76-.29-1.09h0c-.08.33-.17.76-.26,1.09l-.34,1.2Z"/><path class="cls-5" d="M78.57,49.49h1.27V52h0c.13-.22.26-.42.39-.62l1.28-1.88H83.1L81.23,51.9l2,3.25H81.71l-1.39-2.44-.49.6v1.85H78.57Z"/><path class="cls-5" d="M85.15,53.7l-.4,1.45H83.42l1.73-5.66h1.68l1.75,5.66H87.21l-.44-1.45Zm1.44-1-.35-1.2c-.1-.34-.2-.76-.29-1.09h0c-.08.33-.17.76-.26,1.09l-.33,1.2Z"/><text class="cls-6" transform="translate(118.86 42.19)">G<tspan class="cls-7" x="16.08" y="0">L</tspan><tspan x="29.81" y="0">O</tspan><tspan class="cls-8" x="46.94" y="0">B</tspan><tspan x="62.65" y="0">A</tspan><tspan class="cls-9" x="79.34" y="0">L</tspan><tspan class="cls-10" x="92.69" y="0" xml:space="preserve"> SHAPERS</tspan></text><text class="cls-11" transform="translate(120.02 57.95)">DHAK<tspan class="cls-12" x="37.93" y="0">A</tspan><tspan x="46.58" y="0" xml:space="preserve"> HUB</tspan></text></g></g></svg>