<?xml version="1.0" encoding="utf-8"?>
<!-- Generator: Adobe Illustrator 21.0.0, SVG Export Plug-In . SVG Version: 6.00 Build 0)  -->
<svg version="1.1" id="Layer_1" xmlns="http://www.w3.org/2000/svg" xmlns:xlink="http://www.w3.org/1999/xlink" x="0px" y="0px"
	 viewBox="0 0 343 80" style="enable-background:new 0 0 343 80;" xml:space="preserve">
<style type="text/css">
	.st0{fill-rule:evenodd;clip-rule:evenodd;fill:#0C53EC;}
	.st1{fill-rule:evenodd;clip-rule:evenodd;fill:#0B52EC;}
	.st2{fill-rule:evenodd;clip-rule:evenodd;fill:#0D53EB;}
	.st3{fill:#879D9E;}
	.st4{fill:#1D50EC;}
	.st5{fill:#0C53EC;}
	.st6{fill:#0C53EC;stroke:#0C53EC;stroke-width:0.5;stroke-miterlimit:10;}
</style>
<g>
	<path class="st0" d="M46.4,67C46.4,67,46.4,67,46.4,67c0.7,0,1.2-0.1,1.8-0.2c0.8-0.1,0.8-0.1,0.9,0.7c0.1,0.9,0.1,0.9,1,0.7
		c0.3,0,0.4,0,0.4,0.3c0.1,0.3,0.2,0.7,0.2,1c0,0.4,0.3,0.6,0.6,0.5c0.4,0,0.9,0,1.3,0c0.9,0,1,0,1.2,0.9c0.1,0.3,0.2,0.3,0.5,0.3
		c0.5-0.2,1.1-0.3,1.6-0.5c0.7-0.2,0.7-0.2,1.1,0.4c0.1,0.6,0.4,1.1,0.6,1.6c0.6,1.4,1.1,2.8,1.7,4.2c0.2,0.4,0.1,0.6-0.3,0.7
		c-3.4,1.3-6.8,2.1-10.4,2.5c-0.5,0-1,0-1.4,0.2c-0.6,0-1.3,0-1.9,0c0-1.8-0.1-3.6-0.1-5.4c0-1.7-0.1-3.4-0.1-5.1c0-0.4,0-0.7,0-1.1
		c0.3,0,0.6,0,0.9,0c0.3,0,0.4-0.1,0.4-0.4C46.4,67.9,46.4,67.4,46.4,67z"/>
	<path class="st1" d="M5,37.9c0.2-0.3,0.1-0.7,0.2-1.1c0.3-3,0.9-6,1.9-8.9c0.1-0.3,0.2-0.3,0.5-0.2c2.7,0.9,5.3,1.9,8,2.8
		c0.4,0.1,0.4,0.3,0.3,0.6c-0.3,0.9-0.5,1.8-0.8,2.7c-0.1,0.3,0,0.4,0.3,0.5c1,0.2,0.9,0.2,0.8,1.2c-0.2,1.2-0.3,2.3-0.4,3.5
		c-0.4,0.1-0.7,0.3-1.1,0.1c-0.2-0.1-0.3-0.1-0.3,0.2c0,0.2-0.2,0.4-0.1,0.6c0.1,0.3,0,0.6,0.1,0.9c0,0.1,0,0.2-0.2,0.2
		c-0.4,0.1-0.9,0.2-1.3,0.2c-2.6,0-5.2,0-7.8,0C5,40,5,39,5,37.9z"/>
	<path class="st0" d="M35.9,73c0.1-0.5,0.3-1,0.4-1.4c0.1-0.3,0.2-0.4,0.5-0.3c0.4,0.1,0.8,0.2,1.3,0.3c0.3,0.1,0.4,0,0.4-0.3
		c0.4-1.9,0.8-3.7,1.1-5.6c0.1-0.3,0.2-0.3,0.4-0.3c0.3,0.1,0.6,0.1,0.8,0.2c0.2,0.1,0.3,0,0.3-0.3c0.2-1.3,0.4-2.6,0.5-3.9
		c0-0.3,0.2-0.4,0.5-0.4c0.6,0.1,1.2,0.1,1.8,0.2c0,0.1-0.1,0.3-0.1,0.4c0,1.6,0,3.2,0,4.8c0,0.7,0,1.3,0,2
		c-0.1,0.1-0.1,0.3-0.1,0.5c0,3.8,0,7.5,0,11.3c-0.5,0-1,0-1.4,0c-0.4-0.2-0.9-0.1-1.4-0.2c-0.5-0.1-1-0.1-1.5-0.2
		c-1.6-0.2-3.1-0.5-4.7-0.9c-0.3-0.1-0.4-0.2-0.3-0.5c0.2-0.5,0.3-0.9,0.4-1.4C35.2,75.8,35.6,74.4,35.9,73z"/>
	<path class="st0" d="M47.4,0.7c0.1,0.1,0.3,0.2,0.5,0.2c0.8-0.1,1.7,0.1,2.5,0.2c0.3,0,0.4,0.1,0.3,0.4c-0.4,2.9-0.9,5.7-1.3,8.6
		c-0.2,1.2-0.2,1.2-1.4,1.3c-1.3,0.1-1.3,0.1-1.6,1.4c-0.2,0.8-0.4,1.7-0.5,2.5c0,0.3-0.3,0.4-0.5,0.5c-0.6,0.2-1.3,0.4-1.9,0.6
		c-0.2,0.1-0.2,0-0.3-0.2c-0.1-1.1-0.1-2.2-0.2-3.2c0-0.6,0-1.2,0-1.8c0-0.1,0-0.2-0.1-0.3c-0.1-1-0.2-1.9-0.2-2.9
		c0-0.4,0-0.8-0.1-1.3c-0.1-1.7-0.2-3.5-0.4-5.2c0-0.3-0.1-0.6,0.2-0.8C44,0.7,45.7,0.7,47.4,0.7z"/>
	<path class="st0" d="M5.1,44.2c0-0.1,0-0.3,0-0.4c0-0.1,0-0.2,0-0.4c-0.1-0.4,0.1-0.5,0.5-0.5c0.5,0,0.9,0,1.4,0
		c0.3,0,0.6,0.1,0.8-0.1c0.8,0,1.6-0.1,2.3-0.1c1.9,0,3.9-0.1,5.8-0.2c0.4,0,0.6,0.1,0.6,0.5c0,0.6,0.1,1.2,0.2,1.8
		c0,0.3,0.1,0.3,0.4,0.3c1.9-0.2,3.8-0.5,5.7-0.7c0.1,0,0.2,0,0.2,0c0.3-0.1,0.5,0,0.4,0.4c-0.1,0.6-0.2,1.3-0.3,1.9
		c-0.1,0.6-0.1,0.6,0.5,0.4c0.3-0.1,0.5-0.1,0.8-0.2c0.2-0.1,0.4,0,0.5,0.2c0.3,0.8,0.3,0.8-0.5,1.1c-4.3,1.9-8.6,3.9-12.9,6
		c-1,0.5-2,1-3.1,1.5c-0.6,0.3-0.5,0.4-0.7-0.3c-1-2.5-1.8-5.2-2.3-7.9C5.4,46.6,5.3,45.4,5.1,44.2z"/>
	<path class="st0" d="M34.1,2.2c1.2-0.2,2.3-0.6,3.5-0.8c0.9-0.2,1.8-0.3,2.7-0.4c0.2,0,0.3,0,0.4,0.1c0,0.1,0,0.1,0,0.2
		c0,0.1,0,0.2,0,0.4c0.2,1.8,0.4,3.5,0.6,5.3c0,0.4-0.1,0.4-0.4,0.5c-1,0.1-2,0.3-3,0.5c-0.2,0-0.4,0.1-0.3,0.4c0,0.1,0,0.2,0,0.3
		c0,0.2,0,0.5,0,0.7c0,0.1-0.1,0.2-0.2,0.2c-0.8,0.2-1.7,0.5-2.5,0.7c-0.3,0.1-0.4,0-0.4-0.2c-0.3-0.9-0.6-1.7-0.9-2.6
		C33.5,7,33.4,7,33.1,7.1c-0.2,0.1-0.5,0.2-0.7,0.3c-0.9,0.3-0.8,0.2-0.5,1c0.7,1.9,1.5,3.8,2.3,5.7c0.1,0.3,0.1,0.4-0.2,0.5
		c-0.3,0.1-0.5,0.2-0.8,0.3c-0.3,0.1-0.4,0.3-0.3,0.6c0.3,0.9,0.3,0.9-0.5,1.3c-0.6,0.3-1.2,0.7-1.8,1c-0.2,0.1-0.3,0.2-0.5-0.1
		c-1.4-2.2-2.8-4.4-4.2-6.6c0-0.1,0-0.2-0.2-0.2l0,0c0-0.4,0-0.7-0.5-0.8c-0.6-0.9-1.2-1.9-1.8-2.8c-0.1-0.2-0.2-0.4,0.1-0.5
		c0.2-0.1,0.4-0.2,0.5-0.3c0,0,0.1,0,0.1-0.1l0,0c0.6-0.3,1.2-0.7,1.7-1c2.1-1.1,4.2-2,6.4-2.7C32.9,2.5,33.5,2.3,34.1,2.2z"/>
	<path class="st0" d="M52.7,12.6c0.1-0.5,0.2-0.8,0.3-1.2c0.1-0.3,0-0.4-0.2-0.4c-0.6-0.1-1.3-0.3-1.9-0.4c-0.3-0.1-0.3-0.1-0.3-0.4
		c0.5-2.8,1.1-5.6,1.6-8.4c0.1-0.3,0.2-0.4,0.5-0.3c5.1,1,9.8,3,14.1,5.8c0.3,0.2,0.3,0.3,0.1,0.6c-1.1,1.6-2.1,3.1-3.1,4.7
		c-0.2,0.3-0.3,0.3-0.6,0.1c-0.8-0.5-1.6-1-2.4-1.5c-0.3-0.2-0.4-0.1-0.6,0.2c-0.5,0.9-1,1.8-1.4,2.8c-0.1,0.3-0.3,0.5-0.5,0.7
		c-0.1,0.1-0.2,0.1-0.4,0c-1.6-0.8-3.3-1.5-5-2C52.7,12.8,52.6,12.7,52.7,12.6z"/>
	<path class="st0" d="M64.9,66.6c1.3,1.7,2.6,3.4,3.9,5.1c0.4,0.5,0.4,0.5-0.1,0.8c-2.2,1.6-4.5,3-7,4.2c-0.4,0.2-0.5,0.1-0.7-0.2
		c-2.2-5-4.5-10.1-6.8-15.1c0-0.1-0.1-0.2-0.1-0.2c-0.3-0.5-0.3-0.6,0.3-0.8c0.3-0.1,0.3-0.3,0.2-0.6c-0.4-0.7-0.3-0.7,0.4-1.1
		c0.4-0.2,0.8-0.5,1.2-0.7c0.2-0.1,0.3-0.1,0.5,0.1c0.5,0.7,0.6,0.8,1.3,0.2c0.3-0.3,0.5-0.2,0.7,0.1c1.1,1.5,2.3,3,3.5,4.5
		C62.9,64.1,63.9,65.3,64.9,66.6z"/>
	<path class="st0" d="M11.1,19.5c0.1,0,0.2,0.1,0.3,0.2c5,3.1,10,6.3,15.1,9.4c0.3,0.2,0.4,0.4,0.2,0.8c-0.5,0.8-0.9,1.7-1.2,2.6
		c-0.1,0.3-0.2,0.3-0.5,0.2c-1.6-0.6-3.2-1.2-4.8-1.8c-4-1.5-8-3-12-4.4c-0.4-0.1-0.4-0.3-0.3-0.7c0.8-2,1.8-4,3-5.9
		C11,19.5,11,19.5,11.1,19.5z"/>
	<path class="st2" d="M34.8,72.6c-0.3,0.8-0.6,1.7-0.8,2.5l0,0c-0.1,0.2-0.2,0.3-0.2,0.5v0c-0.3,0.8-0.6,1.7-0.8,2.5
		c-0.1,0.2-0.2,0.4-0.4,0.3c-2-0.7-4-1.5-5.9-2.4c-0.8-0.5-1.6-0.9-2.4-1.4l0,0c0-0.1-0.1-0.1-0.1-0.1c-1.2-0.8-2.4-1.6-3.6-2.5
		c-0.3-0.2-0.3-0.3-0.1-0.6c2.3-2.8,4.5-5.7,6.7-8.5c0.2-0.2,0.3-0.2,0.5-0.1c0.8,0.6,1.6,1.2,2.5,1.7c0.2,0.1,0.3,0.3,0.1,0.5
		c-1.1,1.9-2.2,3.7-3.4,5.6c-0.1,0.2-0.2,0.4,0.1,0.5c0.3,0.1,0.6,0.3,0.8,0.5c0.3,0.2,0.4,0.1,0.6-0.2c0.1-0.3,0.4-0.6,0.5-1
		c0.2-0.4,0.4-0.4,0.8-0.2c0.9,0.5,1.9,0.9,2.9,1.3c0.1,0,0.2,0,0.3,0.1c0.6,0.3,1.3,0.5,1.9,0.7C34.8,72.5,34.8,72.5,34.8,72.6z"/>
	<path class="st0" d="M9.7,57.2c1-0.5,1.9-0.9,2.9-1.4c0.3-0.1,0.4-0.1,0.5,0.2c0,0.1,0.1,0.2,0.1,0.3c0.1,0.2,0.2,0.5,0.4,0.7
		c0.2,0.2,0.5-0.1,0.7-0.1c0.8-0.1,1.6,0.1,2.3,0.5c0.9,0.4,1.7,0.8,2.4,1.4c0.2,0.2,0.4,0.2,0.6,0.1c0.5-0.2,0.9-0.3,1.5-0.4
		c-0.3,0.5-0.6,0.9-0.9,1.3c-0.1,0.2-0.2,0.4-0.1,0.6c0.4,1.2,0.6,2.5,0.6,3.8c0,0.5-0.1,0.9-0.4,1.3c-0.1,0.2-0.1,0.3,0.1,0.4
		c0.4,0.4,0.8,0.8,1.3,1.2c0.2,0.2,0.2,0.3,0,0.5c-0.9,1-1.8,2.1-2.6,3.1c-0.2,0.3-0.4,0.1-0.5-0.1c-1.6-1.4-3.2-3-4.5-4.7
		c-1.9-2.3-3.5-4.7-4.8-7.3c0,0,0-0.1,0-0.1c0-0.3-0.3-0.5-0.3-0.8C9.1,57.4,9.6,57.5,9.7,57.2z"/>
	<path class="st0" d="M12.9,16.7c1.9-2.5,4-4.8,6.5-6.8c0.8-0.6,1.5-1.2,2.3-1.8c0.2-0.2,0.3-0.1,0.5,0.1c1.6,2.4,3.3,4.7,4.9,7.1
		c0.1,0.2,0.1,0.3-0.1,0.5c-0.8,0.7-1.7,1.5-2.4,2.3c-0.2,0.2-0.3,0.2-0.5,0c-0.2-0.3-0.5-0.5-0.7-0.8c-0.3-0.4-0.5-0.3-0.8-0.1
		c-1.3,1-2.6,2-3.8,3.2c-0.3,0.3-0.4,0.2-0.7,0c-0.3-0.2-0.6-0.4-0.9-0.7c-0.3-0.3-0.5-0.2-0.7,0c-0.3,0.3-0.5,0.5-0.8,0.7
		c-0.2,0.2-0.3,0.2-0.5,0c-0.8-0.6-1.6-1.1-2.4-1.7c-0.1-0.3-0.4-0.5-0.7-0.5l0,0c0-0.3,0.1-0.5,0.3-0.8
		C12.6,17.3,13,17.1,12.9,16.7z"/>
	<path class="st2" d="M70.2,15.7c-0.9-1-1.9-1.9-3-2.7c-0.4-0.3-0.7-0.6-1.1-0.9c-0.2-0.2-0.3-0.3-0.1-0.5c0.7-1,1.4-1.9,2.1-2.9
		c0.2-0.3,0.3-0.3,0.6-0.1c3,2.2,5.6,4.8,7.9,7.8c0.7,0.9,1.3,1.8,1.9,2.7c0.1,0.2,0.2,0.3-0.1,0.5c-2.1,1.3-4.1,2.6-6.2,3.9
		c-0.3,0.2-0.4,0.1-0.5-0.1c0,0,0-0.1,0-0.1c-0.4-0.6-0.4-0.6-1-0.2c-0.2,0.2-0.4,0.2-0.6-0.1c-0.4-0.7-0.9-1.3-1.4-2
		c-0.2-0.3,0-0.4,0.1-0.5c0.4-0.6,0.4-0.6,0-1.1c-0.4-0.5-0.4-0.5,0-1c0.5-0.5,1-0.9,1.5-1.4C71,16.4,71,16.4,70.2,15.7z"/>
	<path class="st2" d="M68.7,61.5c0.5-0.5,0.5-0.5,1.2,0c0.3,0.2,0.6,0.5,0.9,0.7c0.3,0.3,0.4,0.2,0.7,0c0.2-0.3,0.5-0.5,0.7-0.7
		c0.2-0.2,0.3-0.2,0.5,0c1.3,1,2.5,1.9,3.8,2.9c0.2,0.2,0.2,0.3,0.1,0.5c-1.7,2.2-3.7,4.3-5.9,6.1c-0.2,0.2-0.3,0.1-0.5-0.1
		c-1.5-1.8-3-3.6-4.5-5.4c-0.3-0.3-0.4-0.6,0.1-0.8c0.1,0,0.1-0.1,0.2-0.2c0.3-0.1,0.5-0.4,0.7-0.6C67.3,63.2,68,62.5,68.7,61.5
		L68.7,61.5C68.7,61.6,68.7,61.6,68.7,61.5z"/>
	<g>
		<path class="st3" d="M70,33.1c-0.3,0.1-0.8,0.3-1.5,0.3c-0.7,0-1.3-0.2-1.8-0.6c-0.4-0.4-0.7-1-0.7-1.8c0-1.4,1-2.4,2.6-2.4
			c0.5,0,1,0.1,1.2,0.2l-0.1,0.5c-0.3-0.1-0.6-0.2-1-0.2c-1.2,0-1.9,0.7-1.9,1.9c0,1.2,0.7,1.9,1.8,1.9c0.4,0,0.7-0.1,0.8-0.1v-1.4
			h-1v-0.5H70V33.1z"/>
		<path class="st3" d="M71,28.5h0.6v4.2h2v0.5H71V28.5z"/>
		<path class="st3" d="M78.1,30.9c0,1.6-1,2.5-2.2,2.5c-1.3,0-2.1-1-2.1-2.4c0-1.5,0.9-2.5,2.2-2.5C77.2,28.5,78.1,29.5,78.1,30.9z
			 M74.4,30.9c0,1,0.5,1.9,1.5,1.9c1,0,1.5-0.9,1.5-2c0-0.9-0.5-1.9-1.5-1.9C74.9,29,74.4,29.9,74.4,30.9z"/>
		<path class="st3" d="M78.9,28.6c0.3-0.1,0.7-0.1,1.1-0.1c0.6,0,1,0.1,1.3,0.3c0.2,0.2,0.4,0.5,0.4,0.8c0,0.5-0.3,0.9-0.8,1v0
			c0.5,0.1,1,0.5,1,1.2c0,0.4-0.2,0.7-0.4,1c-0.3,0.3-0.9,0.4-1.6,0.4c-0.4,0-0.7,0-1-0.1V28.6z M79.5,30.5H80c0.6,0,1-0.3,1-0.8
			c0-0.6-0.4-0.8-1-0.8c-0.3,0-0.4,0-0.5,0V30.5z M79.5,32.8c0.1,0,0.3,0,0.5,0c0.6,0,1.2-0.2,1.2-0.9c0-0.6-0.6-0.9-1.2-0.9h-0.5
			V32.8z"/>
		<path class="st3" d="M83.4,31.8l-0.5,1.5h-0.6l1.6-4.7h0.7l1.6,4.7h-0.7l-0.5-1.5H83.4z M85,31.3l-0.5-1.4
			c-0.1-0.3-0.2-0.6-0.2-0.9h0c-0.1,0.3-0.1,0.6-0.2,0.9l-0.5,1.4H85z"/>
		<path class="st3" d="M87,28.5h0.6v4.2h2v0.5H87V28.5z"/>
		<path class="st3" d="M66.3,39.6c0.3,0.2,0.7,0.3,1.1,0.3c0.6,0,1-0.3,1-0.8c0-0.4-0.3-0.7-0.9-0.9c-0.8-0.3-1.3-0.7-1.3-1.3
			c0-0.7,0.6-1.3,1.5-1.3c0.5,0,0.8,0.1,1,0.2l-0.2,0.5c-0.2-0.1-0.5-0.2-0.9-0.2c-0.6,0-0.9,0.4-0.9,0.7c0,0.4,0.3,0.7,0.9,0.9
			c0.8,0.3,1.2,0.7,1.2,1.4c0,0.7-0.5,1.4-1.7,1.4c-0.5,0-1-0.1-1.2-0.3L66.3,39.6z"/>
		<path class="st3" d="M70.5,35.6v2h2.3v-2h0.6v4.7h-0.6v-2.2h-2.3v2.2h-0.6v-4.7H70.5z"/>
		<path class="st3" d="M75.2,38.9l-0.5,1.5h-0.6l1.6-4.7h0.7l1.6,4.7h-0.7l-0.5-1.5H75.2z M76.8,38.4L76.3,37
			c-0.1-0.3-0.2-0.6-0.2-0.9h0c-0.1,0.3-0.1,0.6-0.2,0.9l-0.5,1.4H76.8z"/>
		<path class="st3" d="M78.8,35.7c0.3,0,0.7-0.1,1.2-0.1c0.6,0,1,0.1,1.3,0.4c0.3,0.2,0.4,0.6,0.4,1c0,0.4-0.1,0.8-0.4,1
			c-0.3,0.3-0.9,0.5-1.4,0.5c-0.2,0-0.4,0-0.5,0v1.9h-0.6V35.7z M79.4,38c0.1,0,0.3,0,0.5,0c0.7,0,1.2-0.4,1.2-1
			c0-0.6-0.4-0.9-1.1-0.9c-0.3,0-0.5,0-0.6,0.1V38z"/>
		<path class="st3" d="M85,38.2h-1.8v1.7h2.1v0.5h-2.7v-4.7h2.6v0.5h-2v1.5H85V38.2z"/>
		<path class="st3" d="M86,35.7c0.3-0.1,0.8-0.1,1.2-0.1c0.7,0,1.1,0.1,1.4,0.4c0.2,0.2,0.4,0.5,0.4,0.9c0,0.6-0.4,1-0.9,1.2v0
			c0.4,0.1,0.6,0.5,0.7,1c0.2,0.7,0.3,1.1,0.4,1.3h-0.6c-0.1-0.1-0.2-0.5-0.3-1.1c-0.1-0.7-0.4-0.9-1-0.9h-0.6v2.1H86V35.7z
			 M86.6,37.9h0.6c0.7,0,1.1-0.4,1.1-0.9c0-0.6-0.4-0.9-1.1-0.9c-0.3,0-0.5,0-0.6,0.1V37.9z"/>
		<path class="st3" d="M89.7,39.6c0.3,0.2,0.7,0.3,1.1,0.3c0.6,0,1-0.3,1-0.8c0-0.4-0.3-0.7-0.9-0.9c-0.8-0.3-1.3-0.7-1.3-1.3
			c0-0.7,0.6-1.3,1.5-1.3c0.5,0,0.8,0.1,1,0.2L92,36.3c-0.2-0.1-0.5-0.2-0.9-0.2c-0.6,0-0.9,0.4-0.9,0.7c0,0.4,0.3,0.7,0.9,0.9
			c0.8,0.3,1.2,0.7,1.2,1.4c0,0.7-0.5,1.4-1.7,1.4c-0.5,0-1-0.1-1.2-0.3L89.7,39.6z"/>
		<path class="st3" d="M69.7,47.3c-0.2,0.1-0.7,0.2-1.3,0.2c-1.3,0-2.3-0.8-2.3-2.4c0-1.5,1-2.5,2.5-2.5c0.6,0,1,0.1,1.1,0.2
			l-0.1,0.5c-0.2-0.1-0.6-0.2-1-0.2c-1.1,0-1.9,0.7-1.9,2c0,1.2,0.7,1.9,1.8,1.9c0.4,0,0.8-0.1,1-0.2L69.7,47.3z"/>
		<path class="st3" d="M74.4,45.1c0,1.6-1,2.5-2.2,2.5c-1.3,0-2.1-1-2.1-2.4c0-1.5,0.9-2.5,2.2-2.5C73.6,42.7,74.4,43.7,74.4,45.1z
			 M70.7,45.1c0,1,0.5,1.9,1.5,1.9c1,0,1.5-0.9,1.5-2c0-0.9-0.5-1.9-1.5-1.9C71.2,43.2,70.7,44.1,70.7,45.1z"/>
		<path class="st3" d="M79.2,45.4c0-0.7-0.1-1.5-0.1-2h0c-0.2,0.6-0.4,1.1-0.6,1.8l-0.8,2.3h-0.5l-0.8-2.3c-0.2-0.7-0.4-1.3-0.5-1.8
			h0c0,0.6,0,1.4-0.1,2.1l-0.1,2h-0.6l0.3-4.7h0.8L77,45c0.2,0.6,0.4,1.1,0.5,1.6h0c0.1-0.5,0.3-1,0.5-1.6l0.8-2.3h0.8l0.3,4.7h-0.6
			L79.2,45.4z"/>
		<path class="st3" d="M84.8,45.4c0-0.7-0.1-1.5-0.1-2h0c-0.2,0.6-0.4,1.1-0.6,1.8l-0.8,2.3h-0.5l-0.8-2.3c-0.2-0.7-0.4-1.3-0.5-1.8
			h0c0,0.6,0,1.4-0.1,2.1l-0.1,2h-0.6l0.3-4.7h0.8l0.8,2.3c0.2,0.6,0.4,1.1,0.5,1.6h0c0.1-0.5,0.3-1,0.5-1.6l0.8-2.3h0.8l0.3,4.7H85
			L84.8,45.4z"/>
		<path class="st3" d="M87.1,42.7v2.8c0,1.1,0.5,1.5,1.1,1.5c0.7,0,1.2-0.5,1.2-1.5v-2.8H90v2.8c0,1.5-0.8,2.1-1.8,2.1
			c-1,0-1.7-0.6-1.7-2v-2.8H87.1z"/>
		<path class="st3" d="M91.1,47.5v-4.7h0.7l1.5,2.4c0.4,0.6,0.6,1.1,0.9,1.5l0,0C94.1,46,94,45.5,94,44.7v-2h0.6v4.7H94l-1.5-2.4
			c-0.3-0.5-0.6-1.1-0.9-1.6l0,0c0,0.6,0,1.2,0,2v2H91.1z"/>
		<path class="st3" d="M96.3,42.7v4.7h-0.6v-4.7H96.3z"/>
		<path class="st3" d="M98.3,43.3h-1.4v-0.5h3.5v0.5h-1.4v4.2h-0.6V43.3z"/>
		<path class="st3" d="M102.1,47.5v-2l-1.5-2.7h0.7l0.7,1.3c0.2,0.4,0.3,0.6,0.5,1h0c0.1-0.3,0.3-0.6,0.5-1l0.7-1.3h0.7l-1.6,2.7v2
			H102.1z"/>
	</g>
	<g>
		<path class="st4" d="M66.4,50.3c0.5-0.1,1.1-0.1,1.7-0.1c1.1,0,1.8,0.2,2.3,0.6c0.6,0.4,1,1.1,1,2.1c0,1.1-0.4,1.8-0.9,2.3
			c-0.6,0.5-1.5,0.7-2.6,0.7c-0.7,0-1.1,0-1.5-0.1V50.3z M67.7,54.9c0.1,0,0.3,0,0.4,0c1.2,0,1.9-0.6,1.9-2c0-1.2-0.7-1.8-1.8-1.8
			c-0.3,0-0.5,0-0.6,0.1V54.9z"/>
		<path class="st4" d="M73.6,50.2v2.2h2.1v-2.2h1.3v5.7h-1.3v-2.4h-2.1v2.4h-1.3v-5.7H73.6z"/>
		<path class="st4" d="M79.4,54.4L79,55.9h-1.3l1.7-5.7h1.7l1.8,5.7h-1.4L81,54.4H79.4z M80.8,53.5l-0.4-1.2
			c-0.1-0.3-0.2-0.8-0.3-1.1h0c-0.1,0.3-0.2,0.8-0.3,1.1l-0.3,1.2H80.8z"/>
		<path class="st4" d="M83.6,50.2h1.3v2.5h0c0.1-0.2,0.3-0.4,0.4-0.6l1.3-1.9h1.6l-1.9,2.4l2,3.2h-1.5l-1.4-2.4L84.8,54v1.8h-1.3
			V50.2z"/>
		<path class="st4" d="M90.2,54.4l-0.4,1.5h-1.3l1.7-5.7h1.7l1.8,5.7h-1.4l-0.4-1.5H90.2z M91.6,53.5l-0.4-1.2
			c-0.1-0.3-0.2-0.8-0.3-1.1h0c-0.1,0.3-0.2,0.8-0.3,1.1l-0.3,1.2H91.6z"/>
	</g>
</g>
<g>
	<path class="st5" d="M134.5,30.1c-1-2.4-5.1-1.9-5.1,0.5v6.3c0,2.9,5.3,2.8,5.3,0v-0.7h-2.9v-3.9h7.3v4.5c0,4.2-3.5,6.3-7.2,6.3
		c-3.6,0-7.2-2.1-7.2-6.3v-6.3c0-4.1,3.6-6.2,7.2-6.2c2.4,0,5.1,1,6.3,3.9L134.5,30.1z"/>
	<path class="st5" d="M141.4,24.7h4.6v13.7h7.4v4.6h-12.1V24.7z"/>
	<path class="st5" d="M154.7,30.7c0-4.2,3.8-6.3,7.5-6.3c3.8,0,7.6,2.1,7.6,6.3v6.2c0,4.2-3.8,6.3-7.5,6.3s-7.6-2.1-7.6-6.3V30.7z
		 M159.3,36.9c0,1.3,1.5,2,3,2c1.5,0,2.9-0.7,2.9-2v-6.2c0-1.4-1.5-2.1-3-2.1c-1.4,0-2.9,0.7-2.9,2.1V36.9z"/>
	<path class="st5" d="M183.6,33.2c2.5,1.3,2.8,3.6,2.6,5c-0.5,2.9-2.4,4.7-6.5,4.7h-7.4V24.7h7.3c3.5,0,6,2.1,5.9,5.6
		C185.4,31.1,184.9,32.5,183.6,33.2z M179.6,31.8c2.2,0,2.3-3.2,0-3.2h-2.7v3.2H179.6z M179.6,38.9c2.8,0,2.7-3.7,0-3.7h-2.7v3.7
		H179.6z"/>
	<path class="st5" d="M203.4,42.9h-4.9l-1.2-3.7h-4.9l-1.1,3.7h-4.9l6.4-18.2h4.2L203.4,42.9z M196.2,35.2l-1.3-5.3h-0.1l-1.3,5.3
		H196.2z"/>
	<path class="st5" d="M204.6,24.7h4.6v13.7h7.4v4.6h-12.1V24.7z"/>
	<path class="st5" d="M224.7,37.1c1.8,2.2,5.8,2.3,6,0.4c0.1-1-1.6-1.6-3.1-1.8c-2.9-0.5-5.6-2.3-5.6-5.8c0-3.6,3.2-5.5,6.6-5.5
		c2.2,0,4.4,0.6,6.2,2.9l-3,2.3c-1.9-2-5.2-2-5.3,0.2c0.1,0.9,1,1.4,2.4,1.7c3.2,0.6,6.5,1.7,6.3,6.2c-0.2,3.5-3.9,5.5-7.2,5.5
		c-2.2,0-4.5-1.1-6.2-3.3L224.7,37.1z"/>
	<path class="st5" d="M241.8,42.9h-4.6V24.7h4.6v6.9h5.3v-6.9h4.6v18.2h-4.6V36h-5.3V42.9z"/>
	<path class="st5" d="M270.1,42.9h-4.9l-1.2-3.7h-4.9l-1.1,3.7H253l6.4-18.2h4.2L270.1,42.9z M262.9,35.2l-1.3-5.3h-0.1l-1.3,5.3
		H262.9z"/>
	<path class="st5" d="M271.3,24.7h7.3c4.5,0,6.7,3.2,6.7,6.4c0,3.2-2.2,6.5-6.6,6.5h-2.7v5.3h-4.6V24.7z M278.6,33.5
		c2.8,0,2.8-4.5,0-4.5h-2.7v4.5H278.6z"/>
	<path class="st5" d="M291.9,31.8h7.4v4h-7.4v2.7h8v4.4h-12.7V24.7h12.7V29h-8V31.8z"/>
	<path class="st5" d="M307.9,37.1H307v5.8h-4.7V24.7h7.3c3.8,0,6.7,1.7,6.8,6c0,3.4-1.4,5.3-3.6,6l5,6.3h-5.7L307.9,37.1z
		 M309.7,33.1c2.9,0,2.9-4.2,0-4.2H307v4.2H309.7z"/>
	<path class="st5" d="M321.1,37.1c1.8,2.2,5.8,2.3,6,0.4c0.1-1-1.6-1.6-3.1-1.8c-2.9-0.5-5.6-2.3-5.6-5.8c0-3.6,3.2-5.5,6.6-5.5
		c2.2,0,4.4,0.6,6.2,2.9l-3,2.3c-1.9-2-5.2-2-5.3,0.2c0.1,0.9,1,1.4,2.4,1.7c3.2,0.6,6.5,1.7,6.3,6.2c-0.2,3.5-3.9,5.5-7.2,5.5
		c-2.2,0-4.5-1.1-6.2-3.3L321.1,37.1z"/>
</g>
<g>
	<path class="st6" d="M130,48c1.9,0,3.4,0.8,3.4,2.9v5c0,2-1.6,2.8-3.4,2.8h-3.6V48H130z M130,58.3c1.7,0,3.1-0.7,3.1-2.5v-5
		c0-1.8-1.4-2.5-3.1-2.5h-3.2v9.9H130z"/>
	<path class="st6" d="M136.5,58.7h-0.4V48h0.4v5.2h6.7V48h0.4v10.7h-0.4v-5.1h-6.7V58.7z"/>
	<path class="st6" d="M145.7,58.7h-0.4l4-10.7h0.6l4,10.7h-0.4l-1.4-3.8h-4.9L145.7,58.7z M149.5,48.3l-2.3,6.1h4.6L149.5,48.3
		L149.5,48.3z"/>
	<path class="st6" d="M155.8,54.5l6.3-6.5h0.5l-4.9,5.1l4.9,5.5h-0.4l-4.8-5.3l-1.6,1.6v3.7h-0.4V48h0.4V54.5z"/>
	<path class="st6" d="M163.6,58.7h-0.4l3.9-10.7h0.6l4,10.7h-0.4l-1.4-3.8H165L163.6,58.7z M167.4,48.3l-2.3,6.1h4.6L167.4,48.3
		L167.4,48.3z"/>
	<path class="st6" d="M177.1,58.7h-0.4V48h0.4v5.2h6.7V48h0.4v10.7h-0.4v-5.1h-6.7V58.7z"/>
	<path class="st6" d="M187.3,55.7c0,1.8,1.7,2.7,3.4,2.7c1.7,0,3.4-0.9,3.4-2.7V48h0.4v7.7c0,2-1.9,3.1-3.8,3.1s-3.7-1-3.7-3.1V48
		h0.4V55.7z"/>
	<path class="st6" d="M202.8,53.2c1.2,0.5,1.5,1.7,1.5,2.6c0,2.2-1.5,2.8-3.3,2.8h-3.9V48h3.9c1.6,0,2.8,0.9,2.8,2.6
		c0,0.9-0.3,1.7-1.1,2.2l-0.5,0.3L202.8,53.2z M201.1,52.8c1.4,0,2.4-0.7,2.4-2.2c0-1.5-1.1-2.3-2.4-2.3h-3.5v4.5H201.1z
		 M201.1,58.3c1.7,0,2.9-0.6,2.9-2.5c0-1.9-1.1-2.6-2.9-2.6h-3.5v5.1H201.1z"/>
</g>
</svg>
